<svg xmlns="http://www.w3.org/2000/svg" width="59.054" height="57.898" viewBox="0 0 59.054 57.898"><g transform="translate(0 0.5)"><path d="M28.277,0C12.661,0,0,11.721,0,26.181A25.456,25.456,0,0,0,10.537,46.568v9.985l9.628-5.284a30.41,30.41,0,0,0,8.112,1.1c15.616,0,28.277-11.721,28.277-26.181S43.893,0,28.277,0Zm2.81,35.258-7.2-7.681L9.837,35.258,25.294,18.85l7.377,7.681L46.544,18.85Z" fill="#00ffa8"/><g transform="translate(2)"><path d="M28.277,0C12.661,0,0,11.721,0,26.181A25.456,25.456,0,0,0,10.537,46.568v9.985l9.628-5.284a30.41,30.41,0,0,0,8.112,1.1c15.616,0,28.277-11.721,28.277-26.181S43.893,0,28.277,0Zm2.81,35.258-7.2-7.681L9.837,35.258,25.294,18.85l7.377,7.681L46.544,18.85Z" fill="none" stroke="#707070" stroke-width="1"/></g></g></svg>