<svg xmlns="http://www.w3.org/2000/svg" width="41.044" height="34.888" viewBox="0 0 41.044 34.888"><path d="M43.252,69.342V80.9H10V47.647H43.252Z" transform="translate(-9.182 -46.829)" fill="#00ffa8"/><path d="M92.257,91.669a2.361,2.361,0,0,1-1.675-.694L82.53,82.923a2.368,2.368,0,0,1,3.349-3.349l6.378,6.378L111.33,66.879a2.368,2.368,0,0,1,3.349,3.349L93.932,90.975A2.361,2.361,0,0,1,92.257,91.669Z" transform="translate(-75.145 -63.852)" fill="#00ffa8"/><path d="M34.07,59.342a.818.818,0,0,0-.818.818V70.9H1.635V39.282H34.07a.818.818,0,1,0,0-1.635H.818A.818.818,0,0,0,0,38.465V71.717a.818.818,0,0,0,.818.818H34.07a.818.818,0,0,0,.818-.818V60.159A.818.818,0,0,0,34.07,59.342Z" transform="translate(0 -37.647)" fill="#707070"/><path d="M407.506,229.983a.818.818,0,0,0-.818.818v2.179a.818.818,0,0,0,1.635,0V230.8A.818.818,0,0,0,407.506,229.983Z" transform="translate(-373.436 -214.257)" fill="#707070"/><path d="M106.092,57.136a3.19,3.19,0,0,0-4.506,0L83.092,75.63l-5.8-5.8a3.186,3.186,0,0,0-4.506,4.506l8.053,8.053a3.186,3.186,0,0,0,4.506,0l20.747-20.747A3.19,3.19,0,0,0,106.092,57.136Zm-1.156,3.35L84.189,81.233a1.551,1.551,0,0,1-2.193,0L73.943,73.18a1.551,1.551,0,0,1,2.193-2.193l6.378,6.378a.818.818,0,0,0,1.156,0l19.073-19.072a1.551,1.551,0,1,1,2.193,2.193Z" transform="translate(-65.98 -54.687)" fill="#707070"/></svg>