<svg xmlns="http://www.w3.org/2000/svg" width="298.586" height="190.42" viewBox="0 0 298.586 190.42"><path d="M206.944,119.923c-7.2-32.2-19.346-54.849-32.474-60.6-11.847-5.189-24.328,3.449-34.142,23.248L142.49,77.8c-7.73,14.1-17.773,13.18-26.567,5.84S99.051,63.206,90.48,53.908C83.3,46.124,75.787,41.023,68.129,38.736,57.209,35.46,45.008,39.427,37.4,62.258c-8.473,25.426-7.822,71.279,1.343,94.629,4.66,11.874,10.765,17.709,16.089,26.967s10.252,24.664,9.8,42.555c-.42,16.562-5.3,29.264-10.348,37.233-3.9,6.167-8.71,12.9-9.181,25.678-.455,12.352,3.587,22.03,7.453,27.538,12.591,17.953,28.1,17.78,40.645-.443,4.475-6.5,8.588-15.159,13.28-20.228,12.321-13.313,25.9.089,38.945,4.99,11.08,4.142,22.345,2,33.123-6.287,6.462-4.976,12.947-12.582,17.486-26.75,3.262-10.254,5.306-23.168,7.226-35.932q3.064-20.427,5.888-41.143a249.111,249.111,0,0,0,2.537-25.612C212.208,149.374,209.979,133.48,206.944,119.923Z" transform="matrix(-0.035, 0.999, -0.999, -0.035, 337.392, -19.898)" fill="#00ffa8" opacity="0.1"/><g transform="translate(101.664 54.354)" style="isolation:isolate"><g transform="translate(1.114 0)" style="isolation:isolate"><path d="M92.783,19.482a3.921,3.921,0,0,0-5.513-.493L76.415,28.107,71.423,15.739a3.839,3.839,0,0,0-.756-1.2,10.624,10.624,0,0,0-5.232-5.347,10.766,10.766,0,0,0-3.249-.865,4.425,4.425,0,0,0-.734-.378L42.35,2.627a3.931,3.931,0,0,0-3.032.413A3.82,3.82,0,0,0,36.94,5.263L29.748,23.757a3.915,3.915,0,1,0,7.3,2.831l6.075-15.617,8.7,2.418a10.4,10.4,0,0,0-.613,1.032L40.058,38.594a9.231,9.231,0,0,0-.361,1.083L26.143,62.4,3.46,69.989a5.795,5.795,0,0,0,6.883,9.324l23.21-7.995a5.565,5.565,0,0,0,1.616-1.92,5.31,5.31,0,0,0,.848-.94L44.1,54.91,58.443,67.135,43.1,84.431A5.789,5.789,0,0,0,51.766,92.1L70.919,70.527a5.725,5.725,0,0,0,1.192-2.235,5.556,5.556,0,0,0,.178-1.341c0-.229.086-.436.069-.648a5.676,5.676,0,0,0-1.989-4.212l-13.2-11.256a10.612,10.612,0,0,0,2.344-3.249l8.551-18.517,2.739,7.3a3.692,3.692,0,0,0,.791,1.817,3.765,3.765,0,0,0,1.5,1.049.968.968,0,0,0,.195.052,3.828,3.828,0,0,0,1.089.264,3.726,3.726,0,0,0,1.341-.143.044.044,0,0,1,.017-.006,1.973,1.973,0,0,0,.361-.057,3.871,3.871,0,0,0,1.542-1.123L93.218,24.995C94.875,23.6,94.175,21.138,92.783,19.482Z" transform="translate(-1.114 11.775)" fill="#00ffa8"/><circle cx="10.918" cy="10.918" r="10.918" transform="translate(61.049)" fill="#00ffa8"/></g></g><g transform="translate(107.665 54.354)" style="mix-blend-mode:darken;isolation:isolate"><g transform="translate(1.114 0)"><path d="M92.783,19.482a3.921,3.921,0,0,0-5.513-.493L76.415,28.107,71.423,15.739a3.839,3.839,0,0,0-.756-1.2,10.624,10.624,0,0,0-5.232-5.347,10.766,10.766,0,0,0-3.249-.865,4.425,4.425,0,0,0-.734-.378L42.35,2.627a3.931,3.931,0,0,0-3.032.413A3.82,3.82,0,0,0,36.94,5.263L29.748,23.757a3.915,3.915,0,1,0,7.3,2.831l6.075-15.617,8.7,2.418a10.4,10.4,0,0,0-.613,1.032L40.058,38.594a9.231,9.231,0,0,0-.361,1.083L26.143,62.4,3.46,69.989a5.795,5.795,0,0,0,6.883,9.324l23.21-7.995a5.565,5.565,0,0,0,1.616-1.92,5.31,5.31,0,0,0,.848-.94L44.1,54.91,58.443,67.135,43.1,84.431A5.789,5.789,0,0,0,51.766,92.1L70.919,70.527a5.725,5.725,0,0,0,1.192-2.235,5.556,5.556,0,0,0,.178-1.341c0-.229.086-.436.069-.648a5.676,5.676,0,0,0-1.989-4.212l-13.2-11.256a10.612,10.612,0,0,0,2.344-3.249l8.551-18.517,2.739,7.3a3.692,3.692,0,0,0,.791,1.817,3.765,3.765,0,0,0,1.5,1.049.968.968,0,0,0,.195.052,3.828,3.828,0,0,0,1.089.264,3.726,3.726,0,0,0,1.341-.143.044.044,0,0,1,.017-.006,1.973,1.973,0,0,0,.361-.057,3.871,3.871,0,0,0,1.542-1.123L93.218,24.995C94.875,23.6,94.175,21.138,92.783,19.482Z" transform="translate(-1.114 11.775)" fill="none" stroke="#707070" stroke-width="2"/><circle cx="10.918" cy="10.918" r="10.918" transform="translate(61.049)" fill="none" stroke="#707070" stroke-width="2"/></g></g></svg>