<svg xmlns="http://www.w3.org/2000/svg" width="32.667" height="32.667" viewBox="0 0 32.667 32.667"><g transform="translate(0.167 0.333)"><g transform="translate(0 0)"><g transform="translate(0)" opacity="0.2"><g transform="translate(0.833 0.667)"><circle cx="15.333" cy="15.333" r="15.333" fill="none" stroke="#fff" stroke-linecap="round" stroke-linejoin="round" stroke-miterlimit="10" stroke-width="2"/><path d="M18.285,10.828H15.167V9.465a.759.759,0,0,1,.789-.863h1.877V5.526L14.7,5.517c-3.064,0-3.532,2.292-3.532,3.759v1.552H8.5v2.667h2.667v9.333h4V13.494H17.96Z" transform="translate(2.167 1.172)" fill="none" stroke="#fff" stroke-linejoin="round" stroke-miterlimit="10" stroke-width="1"/></g><rect width="32" height="32" transform="translate(0 0)" fill="none"/></g></g><g transform="translate(0 0)"><g transform="translate(0)" opacity="0.2"><g transform="translate(0.833 0.667)"><circle cx="15.333" cy="15.333" r="15.333" fill="none" stroke="#fff" stroke-linecap="round" stroke-linejoin="round" stroke-miterlimit="10" stroke-width="2"/><path d="M18.285,10.828H15.167V9.465a.759.759,0,0,1,.789-.863h1.877V5.526L14.7,5.517c-3.064,0-3.532,2.292-3.532,3.759v1.552H8.5v2.667h2.667v9.333h4V13.494H17.96Z" transform="translate(2.167 1.172)" fill="none" stroke="#fff" stroke-linejoin="round" stroke-miterlimit="10" stroke-width="1"/></g><rect width="32" height="32" transform="translate(0 0)" fill="none"/></g></g><g transform="translate(0 0)"><g transform="translate(0)" opacity="0.2"><g transform="translate(0.833 0.667)"><circle cx="15.333" cy="15.333" r="15.333" fill="none" stroke="#fff" stroke-linecap="round" stroke-linejoin="round" stroke-miterlimit="10" stroke-width="2"/><path d="M18.285,10.828H15.167V9.465a.759.759,0,0,1,.789-.863h1.877V5.526L14.7,5.517c-3.064,0-3.532,2.292-3.532,3.759v1.552H8.5v2.667h2.667v9.333h4V13.494H17.96Z" transform="translate(2.167 1.172)" fill="none" stroke="#fff" stroke-linejoin="round" stroke-miterlimit="10" stroke-width="1"/></g><rect width="32" height="32" transform="translate(0 0)" fill="none"/></g></g><g transform="translate(0 0)"><g transform="translate(0)" opacity="0.2"><g transform="translate(0.833 0.667)"><circle cx="15.333" cy="15.333" r="15.333" fill="none" stroke="#fff" stroke-linecap="round" stroke-linejoin="round" stroke-miterlimit="10" stroke-width="2"/><path d="M18.285,10.828H15.167V9.465a.759.759,0,0,1,.789-.863h1.877V5.526L14.7,5.517c-3.064,0-3.532,2.292-3.532,3.759v1.552H8.5v2.667h2.667v9.333h4V13.494H17.96Z" transform="translate(2.167 1.172)" fill="none" stroke="#fff" stroke-linejoin="round" stroke-miterlimit="10" stroke-width="1"/></g><rect width="32" height="32" transform="translate(0 0)" fill="none"/></g></g></g></svg>