<svg xmlns="http://www.w3.org/2000/svg" width="59.191" height="57.691" viewBox="0 0 59.191 57.691"><g transform="translate(0 0.5)"><path d="M56.554,38.273A18.322,18.322,0,0,0,43.167,20.658,21.594,21.594,0,1,0,2.994,32.57L.079,43.109l10.539-2.915a21.514,21.514,0,0,0,10.039,2.972A18.286,18.286,0,0,0,47.575,54.012l8.9,2.462-2.462-8.9a18.215,18.215,0,0,0,2.541-9.3ZM11.141,36.611,4.832,38.356l1.745-6.309-.4-.622a18.274,18.274,0,1,1,5.584,5.584ZM51.722,51.722l-4.681-1.3-.625.407a14.972,14.972,0,0,1-22.331-7.789,21.635,21.635,0,0,0,18.96-18.96,14.973,14.973,0,0,1,7.789,22.332l-.407.625Zm0,0" fill="#00ffa8"/><path d="M180.5,271h3.314v3.314H180.5Zm0,0" transform="translate(-160.563 -241.066)" fill="#00ffa8"/><path d="M145.441,96.627a3.28,3.28,0,0,1-1.079,2.446l-3.892,3.562v4.043h3.314v-2.584l2.815-2.577a6.627,6.627,0,1,0-11.1-4.891h3.314a3.314,3.314,0,1,1,6.627,0Zm0,0" transform="translate(-120.533 -80.059)" fill="#00ffa8"/><g transform="translate(2)"><path d="M56.554,38.273A18.322,18.322,0,0,0,43.167,20.658,21.594,21.594,0,1,0,2.994,32.57L.079,43.109l10.539-2.915a21.514,21.514,0,0,0,10.039,2.972A18.286,18.286,0,0,0,47.575,54.012l8.9,2.462-2.462-8.9a18.215,18.215,0,0,0,2.541-9.3ZM11.141,36.611,4.832,38.356l1.745-6.309-.4-.622a18.274,18.274,0,1,1,5.584,5.584ZM51.722,51.722l-4.681-1.3-.625.407a14.972,14.972,0,0,1-22.331-7.789,21.635,21.635,0,0,0,18.96-18.96,14.973,14.973,0,0,1,7.789,22.332l-.407.625Zm0,0" fill="none" stroke="#707070" stroke-width="1"/><path d="M180.5,271h3.314v3.314H180.5Zm0,0" transform="translate(-160.563 -241.066)" fill="none" stroke="#707070" stroke-width="1"/><path d="M145.441,96.627a3.28,3.28,0,0,1-1.079,2.446l-3.892,3.562v4.043h3.314v-2.584l2.815-2.577a6.627,6.627,0,1,0-11.1-4.891h3.314a3.314,3.314,0,1,1,6.627,0Zm0,0" transform="translate(-120.533 -80.059)" fill="none" stroke="#707070" stroke-width="1"/></g></g></svg>