<svg xmlns="http://www.w3.org/2000/svg" width="534.242" height="328.739" viewBox="0 0 534.242 328.739"><path d="M395.646,171.174c-32.109-1.086-62.69-10.945-91.871-21.71s-58.125-22.743-89.465-28.459c-20.157-3.677-43.212-4.2-59.45,6.083-15.633,9.911-20.683,26.972-23.4,42.82-2.044,11.922-3.245,24.466,2.352,35.628,3.89,7.749,10.786,14.262,15.558,21.686,16.605,25.825,4.867,57.673-13.122,82.889-8.434,11.832-18.232,23.126-24.746,35.708s-9.525,27.019-3.825,39.866c5.646,12.743,19.106,22.295,33.686,29.02,29.613,13.658,64.5,17.571,98.534,19.784,75.326,4.9,151.048,2.78,226.572.656,27.951-.788,56.022-1.586,83.517-5.7,15.271-2.284,31.032-5.909,42.12-14.654,14.07-11.105,17.558-29.912,8.126-43.835C584.42,347.6,540.7,341.8,529.633,316.734c-6.082-13.8.164-29.167,9.01-41.961,18.972-27.449,50.768-51.532,52.44-82.913,1.151-21.549-14.134-43.132-37.77-53.331-24.771-10.69-59.127-9.345-77.395,8.349C457.076,165.077,424,172.085,395.646,171.174Z" transform="translate(-87.542 -118.598)" fill="#00ffa8" opacity="0.1"/><ellipse cx="33.214" cy="6.388" rx="33.214" ry="6.388" transform="translate(36.779 315.963)" fill="#00ffa8"/><ellipse cx="3.865" cy="5.063" rx="3.865" ry="5.063" transform="translate(65.569 314.575)" fill="#3f3d56"/><ellipse cx="3.865" cy="5.063" rx="3.865" ry="5.063" transform="translate(65.569 308.387)" fill="#3f3d56"/><ellipse cx="3.865" cy="5.063" rx="3.865" ry="5.063" transform="translate(65.569 302.199)" fill="#3f3d56"/><ellipse cx="3.865" cy="5.063" rx="3.865" ry="5.063" transform="translate(65.569 296.015)" fill="#3f3d56"/><ellipse cx="3.865" cy="5.063" rx="3.865" ry="5.063" transform="translate(65.569 289.827)" fill="#3f3d56"/><ellipse cx="3.865" cy="5.063" rx="3.865" ry="5.063" transform="translate(65.569 283.639)" fill="#3f3d56"/><ellipse cx="3.865" cy="5.063" rx="3.865" ry="5.063" transform="translate(65.569 277.451)" fill="#3f3d56"/><path d="M212.058,584.707a18.327,18.327,0,0,0,1.443-2.119l-10.162-1.669,10.988.082a18.542,18.542,0,0,0,.354-14.676l-14.74,7.649,13.61-9.981a18.524,18.524,0,1,0-30.6,20.728,18.692,18.692,0,0,0-2.114,3.38l13.193,6.85-14.064-4.718a18.515,18.515,0,0,0,2.985,17.394,18.524,18.524,0,1,0,29.117,0,18.524,18.524,0,0,0,0-22.906Z" transform="translate(-128.147 -344.535)" fill="#00ffa8"/><path d="M179,645.673a18.446,18.446,0,0,0,3.965,11.451,18.524,18.524,0,1,0,29.117,0C214.55,653.98,179,643.6,179,645.673Z" transform="translate(-128.152 -394.055)" opacity="0.1"/><path d="M575.826,614.961c.281,3.629,1.679,7.386,4.618,9.527s7.617,2.1,9.863-.776a11.032,11.032,0,0,0,1.638-3.561c1.892-5.979,3.235-12.521,1.161-18.442-4.677-.3-10.1-2.5-13.61,1.361A16.123,16.123,0,0,0,575.826,614.961Z" transform="translate(-323.656 -372.609)" fill="#3f3d56"/><path d="M594.83,531.014c-.621,5.276-1.679,10.53-1.57,15.842.041,2.051.259,4.083.263,6.143a30.278,30.278,0,0,1-4.083,15.23,5.109,5.109,0,0,1-1.116,1.443,3.584,3.584,0,0,1-3.9.132,7.677,7.677,0,0,1-2.772-3.008c-3.38-5.789-3.475-12.826-4.814-19.39-1.025-5.022-2.822-9.89-3.471-14.971-.422-3.271-.358-6.606-1.03-9.836-.2-.975-.776-2.441-1.152-3.879a5.832,5.832,0,0,1-.181-3.412c.721-1.774,3.085-1.084,4.623-.975a106.409,106.409,0,0,0,16.269-.041,1.4,1.4,0,0,1,1.883.975,22.009,22.009,0,0,1,.984,3.629A40.318,40.318,0,0,1,594.83,531.014Z" transform="translate(-320.878 -325.941)" fill="#fabdbd"/><g transform="translate(249.832 188.169)" opacity="0.1"><path d="M608.759,514.483a3.993,3.993,0,0,0-.839,0c-2.595.209-5.195.313-7.79.327Q604.445,514.819,608.759,514.483Z" transform="translate(-586.839 -514.302)"/><path d="M585.35,569.8a7.676,7.676,0,0,1-2.772-3.008c-3.38-5.789-3.475-12.825-4.813-19.39-1.025-5.022-2.822-9.89-3.471-14.971-.422-3.271-.358-6.605-1.03-9.836-.2-.975-.776-2.441-1.152-3.879a5.832,5.832,0,0,1-.182-3.412,1.933,1.933,0,0,1,1.815-1.18c-1.148-.077-2.268.059-2.722,1.18a5.831,5.831,0,0,0,.181,3.412c.377,1.438.948,2.9,1.152,3.879.671,3.23.608,6.565,1.03,9.836.649,5.086,2.445,9.954,3.471,14.971,1.338,6.565,1.434,13.61,4.814,19.39a7.676,7.676,0,0,0,2.772,3.008,4.029,4.029,0,0,0,2.377.481A4.184,4.184,0,0,1,585.35,569.8Z" transform="translate(-570.833 -514.111)"/></g><path d="M640.537,548.08c-2.722,5.444-2.268,13.157-2.268,13.157.454,18.147-6.805,56.256-6.805,56.256h-6.351s-.907-42.192,0-45.821-.454-16.332-1.815-34.026a90.825,90.825,0,0,1,3.221-30.31c.508-1.815.862-2.808.862-2.808s10.434-15.425,16.332-8.166c1.361,1.688,2.083,5.095,2.332,9.4C646.852,519.948,642.624,543.9,640.537,548.08Z" transform="translate(-347.36 -311.569)" fill="#fabdbd"/><path d="M654.5,505.761c-.25-4.3-.962-7.712-2.332-9.4a4.673,4.673,0,0,0-4.455-1.892,4.836,4.836,0,0,1,3.094,1.892c1.361,1.688,2.083,5.095,2.332,9.4.807,14.191-3.421,38.145-5.508,42.324-2.722,5.444-2.268,13.157-2.268,13.157.454,18.147-6.805,56.256-6.805,56.256h1.361s7.259-38.109,6.805-56.256c0,0-.454-7.712,2.268-13.157C651.081,543.906,655.31,519.952,654.5,505.761Z" transform="translate(-355.534 -311.573)" opacity="0.1"/><path d="M618.391,756a5.9,5.9,0,0,0-1.3,1.415c-.812,1.534.34,3.366,1.574,4.587s2.722,2.527,2.722,4.265a4.252,4.252,0,0,1-2.241,3.339c-.635.4-1.434.907-1.3,1.661a1.558,1.558,0,0,0,.24.531,7.022,7.022,0,0,0,4.641,2.813,20.937,20.937,0,0,0,5.562.045,1.12,1.12,0,0,0,.762-.263,1.034,1.034,0,0,0,.2-.626,8.149,8.149,0,0,1,.454-2.845c.59-1.184,1.946-1.788,2.722-2.849,1.089-1.452.939-3.471.526-5.235-.907-3.843-2.926-8.225-5.957-10.888C623.49,748.886,620.736,753.786,618.391,756Z" transform="translate(-344.514 -451.728)" fill="#3f3d56"/><path d="M482.944,230.838c2.531-3.784,1.874-9.074-.712-12.839s-6.742-6.134-11.029-7.663a31.045,31.045,0,0,0-18.093-1.216c-4.727,1.229-8.974,3.8-13.429,5.789A57.748,57.748,0,0,1,414.6,219.9c-9.577-.268-20.071-2.722-28.105,2.513-14.708,9.568-8.166,35.609-22.08,46.275-3.752,2.876-8.475,4.133-12.648,6.352s-8.13,6.079-8.03,10.807a12.574,12.574,0,0,0,2.268,6.351,29.392,29.392,0,0,0,24.739,13.293,31.5,31.5,0,0,0,24.929-13.284c1.411-2,2.654-4.228,4.7-5.562,4.083-2.677,9.464-.8,14.336-.4,10.847.885,21.7-7.259,23.859-17.943.907-4.559.749-10.008,4.419-12.871,2.963-2.309,7.132-1.815,10.888-2.209,6.869-.712,12.29-4.99,16.019-10.58,1.71-2.563,1.91-5.626,4.242-7.644C476.651,232.775,480.539,234.413,482.944,230.838Z" transform="translate(-202.212 -164.63)" fill="#3f3d56"/><g transform="translate(168.204 43.638)" opacity="0.1"><path d="M463.091,233.761a57.514,57.514,0,0,0,11.873-.907c-1.08.032-2.169.032-3.253,0-7.517-.209-15.6-1.76-22.611.109C453.728,233.008,458.514,233.634,463.091,233.761Z" transform="translate(-426.248 -221.254)"/><path d="M421.337,381.295c-2.046,1.334-3.289,3.561-4.7,5.562A31.871,31.871,0,0,1,398.73,399.2c.531.023,1.062.036,1.6.032a31.489,31.489,0,0,0,24.929-13.284c1.411-2,2.654-4.228,4.7-5.562l.354-.218C427.107,379.73,423.963,379.576,421.337,381.295Z" transform="translate(-398.73 -302.016)"/><path d="M606.8,217.969c-2.581-3.747-6.742-6.134-11.029-7.663a31.044,31.044,0,0,0-18.093-1.216c-.136.032-.268.073-.4.109a34.729,34.729,0,0,1,9.872,2.014c4.287,1.529,8.447,3.915,11.029,7.663s3.244,9.074.712,12.839c-2.4,3.589-6.293,1.951-8.838,4.16-2.332,2.019-2.531,5.081-4.242,7.644-3.208,4.8-7.672,8.62-13.229,10.072,1.91-.227,3.924-.2,5.83-.4,6.869-.712,12.29-4.99,16.019-10.58,1.71-2.563,1.91-5.626,4.242-7.644,2.545-2.209,6.433-.572,8.838-4.16C610.045,227.024,609.387,221.716,606.8,217.969Z" transform="translate(-493.709 -208.252)"/><path d="M529.05,309.244c-3.734.39-7.9-.1-10.888,2.209-3.67,2.863-3.493,8.311-4.419,12.871-1.592,7.971-8.062,14.545-15.743,16.99l.54.05c10.847.885,21.7-7.259,23.859-17.943.907-4.559.749-10.008,4.419-12.871a8.194,8.194,0,0,1,2.817-1.361C529.431,309.195,529.245,309.226,529.05,309.244Z" transform="translate(-452.964 -263.397)"/></g><path d="M608.076,181.736s-10.888,21.776-14.518,29.943-36.748,20.415-41.285,20.869a5.843,5.843,0,0,0-3.239,1.561,17.843,17.843,0,0,0-4.02,6.152s1.815,12.249-.454,32.665c-.045.395-.086.789-.122,1.17C542.461,293.522,546.6,298.1,546.6,298.1s-44.007,16.786-42.646-4.99a98.694,98.694,0,0,0-.059-16.051,67.4,67.4,0,0,0-2.6-12.639c-1.075-3.761-2.359-7.885-3.688-13.5a59.23,59.23,0,0,0-2.522-8.234c-.032-.082-.064-.163-.091-.24-2.268-5.63-4.537-7.449-5.834-8.039a19.612,19.612,0,0,1-3.484-1.96,183.257,183.257,0,0,1-21.2-17.82C453.585,203.739,442.7,177.88,442.7,177.88s-3.176-14.971,4.083-27.221,4.083,24.045,4.083,24.045S464.02,192.4,467.2,200.563a13.645,13.645,0,0,0,6.352,7.467,75.312,75.312,0,0,1,10.044,6.279,58.649,58.649,0,0,0,6.755,4.41c5.072,2.722,11.147,5.793,16.21,6.6a15.286,15.286,0,0,0,2.391.2,2.477,2.477,0,0,0,2-.907c1.361-1.6,1.329-5.049,1.016-7.885a40.078,40.078,0,0,0-.744-4.369s14.744-9.3,14.291,2.042a12.673,12.673,0,0,0,.345,3.729,6.465,6.465,0,0,0,4.4,4.809,10.888,10.888,0,0,0,5.444.177,5.321,5.321,0,0,0,1.606-.549c1.361-.907,14.971-4.99,19.054-5.444s24.5-10.435,24.5-10.435l22.23-30.85s-.454-18.147,8.62-25.406S608.076,181.736,608.076,181.736Z" transform="translate(-248.47 -134.734)" fill="#fabdbd"/><g transform="translate(193.527 16.737)" opacity="0.1"><path d="M667.152,396.3a90.475,90.475,0,0,0-.522,10.979c.045-2.4.2-5.131.522-8.257.036-.381.077-.776.122-1.17a177.9,177.9,0,0,0,1.134-21.046,182.2,182.2,0,0,1-1.134,18.324C667.247,395.529,667.188,395.923,667.152,396.3Z" transform="translate(-564.712 -276.403)"/><path d="M595.054,289.07c-.3.177-.454.286-.454.286a38.858,38.858,0,0,1,.871,5.9A27.827,27.827,0,0,0,595.054,289.07Z" transform="translate(-525.364 -228.468)"/><path d="M461.771,184.492c.222-3.176.553-8.869.49-13.932-.077,6.769-.681,13.674-.681,13.674Z" transform="translate(-452.692 -163.723)"/><path d="M578.555,466.53a2.986,2.986,0,0,1-.032.531c-1.361,21.776,42.646,4.99,42.646,4.99a7.386,7.386,0,0,1-1.148-2.3C613.392,472.106,580.083,483.076,578.555,466.53Z" transform="translate(-516.564 -325.419)"/><path d="M732.121,183.033s-10.888,21.776-14.518,29.943-36.748,20.415-41.284,20.869a5.843,5.843,0,0,0-3.239,1.561,17.844,17.844,0,0,0-4.02,6.152s.109.74.24,2.146a16.867,16.867,0,0,1,3.779-5.576,5.843,5.843,0,0,1,3.239-1.561c4.537-.454,37.655-12.7,41.284-20.869s14.518-29.943,14.518-29.943,7.672-23.3,6.828-30.265C738.25,164.418,732.121,183.033,732.121,183.033Z" transform="translate(-566.044 -155.49)"/><path d="M503.889,298.917a67.406,67.406,0,0,0-2.6-12.639c-1.075-3.761-2.359-7.885-3.688-13.5a59.223,59.223,0,0,0-2.522-8.234c-.032-.082-.064-.163-.091-.24-2.268-5.63-4.537-7.449-5.834-8.039a19.61,19.61,0,0,1-3.484-1.96,183.254,183.254,0,0,1-21.2-17.82c-10.888-10.888-21.776-36.748-21.776-36.748a41.015,41.015,0,0,1-.671-6.615,43.731,43.731,0,0,0,.671,9.337s10.888,25.86,21.776,36.748a183.246,183.246,0,0,0,21.2,17.82,19.612,19.612,0,0,0,3.511,1.96c1.293.59,3.557,2.409,5.834,8.039.027.077.059.159.091.24a59.215,59.215,0,0,1,2.509,8.234c1.329,5.617,2.613,9.74,3.688,13.5a67.4,67.4,0,0,1,2.6,12.639c.191,1.9.3,3.961.336,6.283A79.017,79.017,0,0,0,503.889,298.917Z" transform="translate(-441.99 -176.048)"/></g><path d="M612.528,344.763a27.018,27.018,0,0,0-1.815,3.575,21.6,21.6,0,0,0-.817,6,48.16,48.16,0,0,1-1.289,8.4,9.3,9.3,0,0,1-.454,1.488,3.929,3.929,0,0,1-.531.907,3.869,3.869,0,0,1-.844.767,9.894,9.894,0,0,1-1.538.839c-6.315,2.949-13.2,5.553-20.093,4.537a29.239,29.239,0,0,1-8.361-2.813c-2.5-1.211-5.317-2.649-7.9-1.642h0a3.98,3.98,0,0,1-1.266.395,1.2,1.2,0,0,1-.254-.023c-.853-.163-.853-3.04-1.048-3.888-.744-3.257-.857-5.9-1.3-8.729a28.633,28.633,0,0,0-1.093-4.614,54.484,54.484,0,0,1-2.364-17.094c0-.286-2.042,0-2.722-.027-.172,0-.268-.027-.227-.086a.909.909,0,0,1,.136-.154,2.074,2.074,0,0,1,.812-.4l.535-.159c2.8-.794,5.9-1.125,7.994-3.1,2.178-2.037,2.722-5.29,2.627-8.266a49.2,49.2,0,0,1-.417-5.208,15.285,15.285,0,0,0,2.391.2,2.477,2.477,0,0,0,2-.907,35.828,35.828,0,0,1,1.96,4.537,31.361,31.361,0,0,0,2.491,5.607,9.5,9.5,0,0,0,8.493,4.351,7.888,7.888,0,0,0,7.023-6.125c.522-2.881-.69-7.027-.662-10.022a10.888,10.888,0,0,0,5.444.177,4.92,4.92,0,0,1,.2.567c1.021,3.5,2.382,7.522,5.807,8.765,2.214.8,4.832.2,6.878,1.361a4.415,4.415,0,0,1,.454.3,5.021,5.021,0,0,1,1.2,1.275,10.25,10.25,0,0,1,1.456,4.573A25.369,25.369,0,0,1,612.528,344.763Z" transform="translate(-313.174 -220.175)" fill="#00ffa8"/><path d="M609.2,291.149a15.461,15.461,0,0,1-13.891-1.4,40.069,40.069,0,0,0-.744-4.369s14.744-9.3,14.291,2.042A12.677,12.677,0,0,0,609.2,291.149Z" transform="translate(-333.33 -204.309)" opacity="0.1"/><circle cx="15.425" cy="15.425" r="15.425" transform="translate(255.049 55.475)" fill="#fabdbd"/><path d="M555.06,343.471S585,324.416,678.006,344.832,825,348.915,825,348.915v21.323s-104.345,11.342-144.269,0-96.756-17.884-116.658-.322Z" transform="translate(-290.756 -232.218)" fill="#f86d70"/><path d="M555.06,343.471S585,324.416,678.006,344.832,825,348.915,825,348.915v21.323s-104.345,11.342-144.269,0-96.756-17.884-116.658-.322Z" transform="translate(-290.756 -232.218)" opacity="0.1"/><path d="M557.06,345.471S586.1,326.416,679.1,346.832s146.084,4.083,146.084,4.083l.454,19.508s-103.438,11.342-143.362,0-96.3-19.245-116.2-1.683Z" transform="translate(-291.848 -233.302)" fill="#f86d70"/><path d="M278.37,381.5s-29.943,19.054-122.946-1.361-88.467-4.083-88.467-4.083V354.73s45.821-11.342,85.745,0,96.756,17.884,116.658.322Z" transform="translate(-66.921 -239.755)" fill="#f86d70"/><path d="M278.37,381.5s-29.943,19.054-122.946-1.361-88.467-4.083-88.467-4.083V354.73s45.821-11.342,85.745,0,96.756,17.884,116.658.322Z" transform="translate(-66.921 -239.755)" opacity="0.1"/><path d="M278.052,381.682s-29.035,19.054-122.039-1.361-87.559-4.083-87.559-4.083L68,356.73s44.914-11.342,84.837,0,96.3,19.245,116.2,1.683Z" transform="translate(-67.511 -240.841)" fill="#f86d70"/><path d="M567.869,244.367c-.454-2.831-1.152-6.4,1.216-8.016a5.036,5.036,0,0,1,2.808-.726c4.9-.05,9.591,3.366,14.4,2.368a8.116,8.116,0,0,0,3.176-14.459c-1.892-1.406-4.283-1.914-6.6-2.391-6.084-1.252-12.435-2.5-18.442-.907s-11.5,6.978-11.015,13.157c.227,2.958,1.733,5.644,3.307,8.166,1.2,1.915,5.862,10.888,8.125,11.024C568.041,252.769,568.182,246.218,567.869,244.367Z" transform="translate(-311.401 -171.176)" fill="#3f3d56"/><path d="M615.167,461.7s-31.3,7.712-41.738,0c0,0-4.537,17.693-3.176,26.767,0,0,22.23,1.361,24.5,2.722,0,0,.454-3.629,2.722-1.815,0,0,7.712-9.074,21.776-.907C619.25,488.467,621.972,467.144,615.167,461.7Z" transform="translate(-319.265 -299.05)" fill="#00ffa8"/><path d="M600.494,227.645a9,9,0,0,0-1.012-.635,8.1,8.1,0,0,1-4.442,13.279c-4.809,1-9.5-2.418-14.4-2.368a5.036,5.036,0,0,0-2.808.726c-2.368,1.62-1.674,5.186-1.22,8.016.3,1.851.177,8.4-3.008,8.225h-.055c.876,1.066,1.692,1.787,2.323,1.815,3.176.177,3.307-6.351,3.008-8.225-.454-2.831-1.148-6.4,1.22-8.016a5.036,5.036,0,0,1,2.808-.726c4.9-.05,9.591,3.366,14.4,2.368a8.116,8.116,0,0,0,3.176-14.459Z" transform="translate(-321.997 -175.177)" opacity="0.1"/></svg>