<svg xmlns="http://www.w3.org/2000/svg" width="40.795" height="34.888" viewBox="0 0 40.795 34.888"><g transform="translate(0 -37.647)"><path d="M43.252,69.342V80.9H10V47.647H43.252Z" transform="translate(-9.182 -9.182)" fill="#00ffa8"/><g transform="translate(0 37.647)"><path d="M34.07,68.342a.818.818,0,0,0-.818.818V70.9H1.635V39.282H34.07a.818.818,0,1,0,0-1.635H.818A.818.818,0,0,0,0,38.465V71.717a.818.818,0,0,0,.818.818H34.07a.818.818,0,0,0,.818-.818V69.159A.818.818,0,0,0,34.07,68.342Z" transform="translate(0 -37.647)" fill="#707070"/><path d="M407.506,229.983a.818.818,0,0,0-.818.818v2.179a.818.818,0,0,0,1.635,0V230.8A.818.818,0,0,0,407.506,229.983Z" transform="translate(-373.436 -205.257)" fill="#707070"/></g></g><g transform="translate(8.553 -0.586)"><path d="M23.545,3.83A7.943,7.943,0,0,0,17,7.27a1.688,1.688,0,0,1-1.252.724,1.688,1.688,0,0,1-1.251-.724A7.946,7.946,0,0,0,.565,14.71c2.226,6.914,12.184,15.042,15.181,15.338,3-.3,12.954-8.425,15.182-15.338A7.94,7.94,0,0,0,23.545,3.83Z" transform="translate(0 0)" fill="#00ffa8" stroke="#707070" stroke-width="1.5"/></g></svg>