<svg xmlns="http://www.w3.org/2000/svg" width="32.667" height="32.667" viewBox="0 0 32.667 32.667"><g transform="translate(0.166 0.333)"><g transform="translate(0 0)" opacity="0.2"><g transform="translate(0.833 0.667)"><path d="M81.948,85.692H84.7V76.507H81.948Zm10.736-9.5A4.136,4.136,0,0,0,89.3,77.755V76.477H86.535v9.215H89.3V80.709a2.188,2.188,0,0,1,2.173-2.081c1.209,0,1.507,1.027,1.507,2.055v5.008h2.756V80.478C95.736,76.857,94.022,76.189,92.683,76.189Zm-9.371-.6a1.38,1.38,0,1,0-1.38-1.38A1.38,1.38,0,0,0,83.313,75.589Z" transform="translate(-72.834 -65.473)" fill="none" stroke="#fff" stroke-width="1"/><circle cx="15.333" cy="15.333" r="15.333" fill="none" stroke="#fff" stroke-linecap="round" stroke-linejoin="round" stroke-miterlimit="10" stroke-width="2"/></g><rect width="32" height="32" transform="translate(0 0)" fill="none"/></g><g transform="translate(0 0)" opacity="0.2"><g transform="translate(0.833 0.667)"><path d="M81.948,85.692H84.7V76.507H81.948Zm10.736-9.5A4.136,4.136,0,0,0,89.3,77.755V76.477H86.535v9.215H89.3V80.709a2.188,2.188,0,0,1,2.173-2.081c1.209,0,1.507,1.027,1.507,2.055v5.008h2.756V80.478C95.736,76.857,94.022,76.189,92.683,76.189Zm-9.371-.6a1.38,1.38,0,1,0-1.38-1.38A1.38,1.38,0,0,0,83.313,75.589Z" transform="translate(-72.834 -65.473)" fill="none" stroke="#fff" stroke-width="1"/><circle cx="15.333" cy="15.333" r="15.333" fill="none" stroke="#fff" stroke-linecap="round" stroke-linejoin="round" stroke-miterlimit="10" stroke-width="2"/></g><rect width="32" height="32" transform="translate(0 0)" fill="none"/></g><g transform="translate(0 0)" opacity="0.2"><g transform="translate(0.833 0.667)"><path d="M81.948,85.692H84.7V76.507H81.948Zm10.736-9.5A4.136,4.136,0,0,0,89.3,77.755V76.477H86.535v9.215H89.3V80.709a2.188,2.188,0,0,1,2.173-2.081c1.209,0,1.507,1.027,1.507,2.055v5.008h2.756V80.478C95.736,76.857,94.022,76.189,92.683,76.189Zm-9.371-.6a1.38,1.38,0,1,0-1.38-1.38A1.38,1.38,0,0,0,83.313,75.589Z" transform="translate(-72.834 -65.473)" fill="none" stroke="#fff" stroke-width="1"/><circle cx="15.333" cy="15.333" r="15.333" fill="none" stroke="#fff" stroke-linecap="round" stroke-linejoin="round" stroke-miterlimit="10" stroke-width="2"/></g><rect width="32" height="32" transform="translate(0 0)" fill="none"/></g><g transform="translate(0 0)" opacity="0.2"><g transform="translate(0.833 0.667)"><path d="M81.948,85.692H84.7V76.507H81.948Zm10.736-9.5A4.136,4.136,0,0,0,89.3,77.755V76.477H86.535v9.215H89.3V80.709a2.188,2.188,0,0,1,2.173-2.081c1.209,0,1.507,1.027,1.507,2.055v5.008h2.756V80.478C95.736,76.857,94.022,76.189,92.683,76.189Zm-9.371-.6a1.38,1.38,0,1,0-1.38-1.38A1.38,1.38,0,0,0,83.313,75.589Z" transform="translate(-72.834 -65.473)" fill="none" stroke="#fff" stroke-width="1"/><circle cx="15.333" cy="15.333" r="15.333" fill="none" stroke="#fff" stroke-linecap="round" stroke-linejoin="round" stroke-miterlimit="10" stroke-width="2"/></g><rect width="32" height="32" transform="translate(0 0)" fill="none"/></g></g></svg>