<svg xmlns="http://www.w3.org/2000/svg" width="23.413" height="35.12" viewBox="0 0 23.413 35.12"><path d="M9.853,0l8.718,11.707H12.78L4,0Zm9.664,10.527L27.413,0H21.56L16.62,6.635l2.9,3.892Zm-3.81,7.033a7.317,7.317,0,1,0,7.317,7.317A7.316,7.316,0,0,0,15.707,17.56ZM18.42,28.908l-2.713-1.452-2.713,1.452.54-3.029-2.217-2.132,3.048-.42,1.342-2.769,1.342,2.769,3.048.42-2.218,2.132ZM15.707,14.633A10.243,10.243,0,1,0,25.95,24.876,10.244,10.244,0,0,0,15.707,14.633Zm0,19.023a8.78,8.78,0,1,1,8.78-8.78A8.78,8.78,0,0,1,15.707,33.656Z" transform="translate(-4)" fill="#964b00"/></svg>