<svg xmlns="http://www.w3.org/2000/svg" width="10.971" height="13.629" viewBox="0 0 10.971 13.629"><g transform="translate(0 0.5)"><g transform="translate(-64)"><g transform="translate(64)"><path d="M73.208,4.736h-.789V3.683a3.683,3.683,0,0,0-7.367,0V4.736h-.789A.263.263,0,0,0,64,5v6.577a1.053,1.053,0,0,0,1.052,1.052h7.367a1.053,1.053,0,0,0,1.052-1.052V5A.263.263,0,0,0,73.208,4.736Zm-3.685,5.5a.263.263,0,0,1-.262.292H68.21a.263.263,0,0,1-.262-.292l.166-1.492a1.041,1.041,0,0,1-.431-.846,1.052,1.052,0,0,1,2.1,0,1.041,1.041,0,0,1-.431.846Zm1.317-5.5h-4.21V3.683a2.1,2.1,0,1,1,4.21,0Z" transform="translate(-64)" fill="#00ffa8"/></g></g><g transform="translate(-63)"><g transform="translate(64)"><path d="M73.208,4.736h-.789V3.683a3.683,3.683,0,0,0-7.367,0V4.736h-.789A.263.263,0,0,0,64,5v6.577a1.053,1.053,0,0,0,1.052,1.052h7.367a1.053,1.053,0,0,0,1.052-1.052V5A.263.263,0,0,0,73.208,4.736Zm-3.685,5.5a.263.263,0,0,1-.262.292H68.21a.263.263,0,0,1-.262-.292l.166-1.492a1.041,1.041,0,0,1-.431-.846,1.052,1.052,0,0,1,2.1,0,1.041,1.041,0,0,1-.431.846Zm1.317-5.5h-4.21V3.683a2.1,2.1,0,1,1,4.21,0Z" transform="translate(-64)" fill="none" stroke="#707070" stroke-width="1"/></g></g></g></svg>