<svg xmlns="http://www.w3.org/2000/svg" xmlns:xlink="http://www.w3.org/1999/xlink" width="257.172" height="172.023" viewBox="0 0 257.172 172.023"><defs><filter id="a" x="60.586" y="37.2" width="112.016" height="112.016" filterUnits="userSpaceOnUse"><feOffset dy="3" input="SourceAlpha"/><feGaussianBlur stdDeviation="3" result="b"/><feFlood flood-opacity="0.161"/><feComposite operator="in" in2="b"/><feComposite in="SourceGraphic"/></filter><filter id="c" x="65.586" y="36.2" width="114.016" height="114.016" filterUnits="userSpaceOnUse"><feOffset dy="3" input="SourceAlpha"/><feGaussianBlur stdDeviation="3" result="d"/><feFlood flood-opacity="0.161"/><feComposite operator="in" in2="d"/><feComposite in="SourceGraphic"/></filter></defs><path d="M254.075,146.961c-16.487-.586-32.189-5.9-47.173-11.711S177.057,122.98,160.965,119.9c-10.35-1.983-22.188-2.263-30.526,3.282-8.027,5.347-10.62,14.55-12.014,23.1-1.05,6.431-1.666,13.2,1.207,19.219,2,4.18,5.538,7.694,7.989,11.7,8.526,13.931,2.5,31.112-6.738,44.715-4.331,6.383-9.362,12.475-12.706,19.263s-4.891,14.576-1.964,21.506c2.9,6.874,9.81,12.027,17.3,15.655,15.205,7.368,33.116,9.479,50.594,10.673,38.677,2.645,77.558,1.5,116.337.354,14.352-.425,28.765-.855,42.883-3.073,7.841-1.232,15.934-3.188,21.627-7.905,7.224-5.991,9.015-16.136,4.173-23.647-8.121-12.6-30.569-15.729-36.252-29.253-1.649-3.929-1.533-8.1-.3-12.461a38.106,38.106,0,0,1,4.93-10.175c9.741-14.807,26.068-27.8,26.926-44.727.591-11.625-7.258-23.268-19.393-28.769-12.719-5.767-30.36-5.041-39.74,4.5C285.617,143.671,268.633,147.452,254.075,146.961Z" transform="translate(-104.666 -118.598)" fill="#00ffa8" opacity="0.1"/><g transform="matrix(1, 0, 0, 1, 0, 0)" filter="url(#a)"><path d="M80.791,88.114l-6.362-3.4-6.366,3.4,1.269-7.1-5.2-5,7.149-.987,3.15-6.495,3.15,6.495,7.149.987-5.206,5,1.269,7.1Zm-27.421,0-6.362-3.4-6.366,3.4,1.273-7.1-5.206-5,7.149-.987,3.15-6.495,3.15,6.495,7.149.987-5.206,5,1.269,7.1Zm-27.421,0-6.362-3.4-6.366,3.4,1.273-7.1-5.206-5,7.149-.987,3.15-6.495,3.15,6.495,7.149.987-5.206,5ZM90.1,62.651H3.917A3.916,3.916,0,0,0,0,66.569v23.5A3.916,3.916,0,0,0,3.917,93.99H90.1a3.914,3.914,0,0,0,3.917-3.917v-23.5A3.914,3.914,0,0,0,90.1,62.651ZM.008,58.734H19.587c.031-4.756,0-8.967,0-11.8.02-15.642,6.851-12.206,6.851-26.1,0-5.9-3.851-9.1-8.806-9.1-7.322,0-12.414,7-5.48,20.092,2.276,4.305-2.429,5.324-7.482,6.491C.29,39.32,0,42.411,0,46.116L.008,58.734ZM89.347,38.309c-5.053-1.167-9.758-2.186-7.482-6.491,6.934-13.092,1.841-20.092-5.48-20.092-4.955,0-8.806,3.2-8.806,9.1,0,13.021,6.734,10.592,6.851,26.152.031,3.808-.035,5.136,0,11.752H94.008l.008-12.618c0-3.706-.29-6.8-4.669-7.807ZM70.5,58.734H23.512L23.5,46.489c0-4.928.392-9.723,6.221-11.07,6.6-1.524,13.1-2.883,9.97-8.653C30.426,9.669,37.054-.026,47-.026c9.758,0,16.555,9.335,7.31,26.791-3.036,5.735,3.236,7.1,9.97,8.653,5.837,1.348,6.225,6.146,6.225,11.082L70.5,58.734Z" transform="translate(69.59 43.23)" fill="#00ffa8" fill-rule="evenodd"/></g><g transform="matrix(1, 0, 0, 1, 0, 0)" filter="url(#c)"><path d="M80.791,88.114l-6.362-3.4-6.366,3.4,1.269-7.1-5.2-5,7.149-.987,3.15-6.495,3.15,6.495,7.149.987-5.206,5,1.269,7.1Zm-27.421,0-6.362-3.4-6.366,3.4,1.273-7.1-5.206-5,7.149-.987,3.15-6.495,3.15,6.495,7.149.987-5.206,5,1.269,7.1Zm-27.421,0-6.362-3.4-6.366,3.4,1.273-7.1-5.206-5,7.149-.987,3.15-6.495,3.15,6.495,7.149.987-5.206,5ZM90.1,62.651H3.917A3.916,3.916,0,0,0,0,66.569v23.5A3.916,3.916,0,0,0,3.917,93.99H90.1a3.914,3.914,0,0,0,3.917-3.917v-23.5A3.914,3.914,0,0,0,90.1,62.651ZM.008,58.734H19.587c.031-4.756,0-8.967,0-11.8.02-15.642,6.851-12.206,6.851-26.1,0-5.9-3.851-9.1-8.806-9.1-7.322,0-12.414,7-5.48,20.092,2.276,4.305-2.429,5.324-7.482,6.491C.29,39.32,0,42.411,0,46.116L.008,58.734ZM89.347,38.309c-5.053-1.167-9.758-2.186-7.482-6.491,6.934-13.092,1.841-20.092-5.48-20.092-4.955,0-8.806,3.2-8.806,9.1,0,13.021,6.734,10.592,6.851,26.152.031,3.808-.035,5.136,0,11.752H94.008l.008-12.618c0-3.706-.29-6.8-4.669-7.807ZM70.5,58.734H23.512L23.5,46.489c0-4.928.392-9.723,6.221-11.07,6.6-1.524,13.1-2.883,9.97-8.653C30.426,9.669,37.054-.026,47-.026c9.758,0,16.555,9.335,7.31,26.791-3.036,5.735,3.236,7.1,9.97,8.653,5.837,1.348,6.225,6.146,6.225,11.082L70.5,58.734Z" transform="translate(75.59 43.23)" fill="none" stroke="#707070" stroke-width="2" fill-rule="evenodd"/></g></svg>