<svg xmlns="http://www.w3.org/2000/svg" xmlns:xlink="http://www.w3.org/1999/xlink" width="257.228" height="197.928" viewBox="0 0 257.228 197.928"><defs><filter id="a" x="68.905" y="53.764" width="117.497" height="109.206" filterUnits="userSpaceOnUse"><feOffset dy="3" input="SourceAlpha"/><feGaussianBlur stdDeviation="3" result="b"/><feFlood flood-opacity="0.161"/><feComposite operator="in" in2="b"/><feComposite in="SourceGraphic"/></filter><filter id="c" x="74.43" y="53.577" width="119.905" height="111.206" filterUnits="userSpaceOnUse"><feOffset dy="3" input="SourceAlpha"/><feGaussianBlur stdDeviation="3" result="d"/><feFlood flood-opacity="0.161"/><feComposite operator="in" in2="d"/><feComposite in="SourceGraphic"/></filter></defs><path d="M281.793,93.355C271.517,71.561,254.2,56.235,235.47,52.34c-16.9-3.511-34.7,2.334-48.7,15.733l3.085-3.227c-11.027,9.543-25.353,8.919-37.9,3.952S127.886,54.971,115.66,48.679A100.409,100.409,0,0,0,83.777,38.411C68.2,36.194,50.794,38.879,39.948,54.33c-12.086,17.207-11.159,48.238,1.916,64.039,6.648,8.036,15.357,11.985,22.95,18.249s14.624,16.691,13.977,28.8c-.6,11.209-7.56,19.8-14.762,25.2-5.569,4.174-12.425,8.728-13.1,17.378-.649,8.359,5.117,14.909,10.631,18.636,17.96,12.149,40.087,12.032,57.98-.3,6.383-4.4,12.251-10.259,18.944-13.689,17.576-9.009,36.943.06,55.555,3.377a90.69,90.69,0,0,0,47.249-4.255c9.218-3.368,18.469-8.515,24.943-18.1,4.653-6.939,7.569-15.679,10.308-24.317q4.37-13.824,8.4-27.843c1.611-5.612,3.2-11.331,3.619-17.333C289.3,113.285,286.123,102.529,281.793,93.355Z" transform="translate(-31.441 -37.732)" fill="#00ffa8" opacity="0.1"/><g transform="matrix(1, 0, 0, 1, 0, 0)" filter="url(#a)"><path d="M90.609,39.568A45.575,45.575,0,1,1,45.6,1,45.369,45.369,0,0,1,71.737,9.262l-5.9,6.04a37.3,37.3,0,1,0,17.031,32.15l7.736-7.885ZM86.662,5.838,47.676,45.8,31.744,30.816,18.913,43.659,47.676,71.477,99.5,18.673,86.662,5.838Z" transform="translate(77.91 58.76)" fill="#00ffa8"/></g><g transform="matrix(1, 0, 0, 1, 0, 0)" filter="url(#c)"><path d="M90.609,39.568A45.575,45.575,0,1,1,45.6,1,45.369,45.369,0,0,1,71.737,9.262l-5.9,6.04a37.3,37.3,0,1,0,17.031,32.15l7.736-7.885ZM86.662,5.838,47.676,45.8,31.744,30.816,18.913,43.659,47.676,71.477,99.5,18.673,86.662,5.838Z" transform="translate(84.43 59.58)" fill="none" stroke="#707070" stroke-width="2"/></g></svg>