<svg xmlns="http://www.w3.org/2000/svg" xmlns:xlink="http://www.w3.org/1999/xlink" width="324.306" height="247.074" viewBox="0 0 324.306 247.074"><defs><filter id="a" x="82.288" y="75.036" width="133.039" height="123.452" filterUnits="userSpaceOnUse"><feOffset dy="3" input="SourceAlpha"/><feGaussianBlur stdDeviation="3" result="b"/><feFlood flood-opacity="0.161"/><feComposite operator="in" in2="b"/><feComposite in="SourceGraphic"/></filter><filter id="c" x="87.495" y="73.65" width="135.133" height="125.452" filterUnits="userSpaceOnUse"><feOffset dy="3" input="SourceAlpha"/><feGaussianBlur stdDeviation="3" result="d"/><feFlood flood-opacity="0.161"/><feComposite operator="in" in2="d"/><feComposite in="SourceGraphic"/></filter></defs><path d="M193.781,508.118C152.229,480.33,141,413.96,140.241,409.177c-2.453-15.36-10.141-63.142,1.366-110.18,14.213-57.986,49.821-82.807,72.987-66.172,15.756,11.268,13.555,32.953,33.762,53.416,24.683,24.927,38.795,3.614,51.136,27.053,12.923,24.5,12.847,77.174,6.12,112.093-9.18,47.622-19.271,76.111-41.754,85.465C244.992,510.906,221.416,521.872,193.781,508.118Z" transform="translate(580.568 11.764) rotate(106)" fill="#00ffa8" opacity="0.1"/><g transform="matrix(1, 0, 0, 1, 0, 0)" filter="url(#a)"><path d="M115.039,10.587c-1.783,19.676-13.46,38.782-32.944,45.239,1.424-2.646,2.857-5.488,4.228-8.546a38.878,38.878,0,0,0,8.417-5.906c7.863-7.242,11.407-16.681,12.98-24.057H94.835c.109-.828.207-1.672.3-2.6.136-1.3.257-2.711.363-4.137h19.537ZM0,10.587C1.783,30.263,13.46,49.369,32.944,55.826c-1.424-2.646-2.857-5.488-4.228-8.546-13.972-7.291-19.35-20.371-21.4-29.963H20.2c-.278-2.152-.489-4.419-.661-6.73H0ZM91.072,1c0,45.156-22.549,61.3-26.433,79.312-.152.7-.278,1.436-.371,2.174H50.823C48.436,63.567,23.966,47.989,23.966,1Zm-26.8,81.486H50.823c-.968,5.69-3.168,17.347-12.472,17.347v6.62H76.7v-6.62C67.115,99.833,65.189,88.175,64.268,82.486Z" transform="translate(91.29 80.04)" fill="#00ffa8"/></g><g transform="matrix(1, 0, 0, 1, 0, 0)" filter="url(#c)"><path d="M115.039,10.587c-1.783,19.676-13.46,38.782-32.944,45.239,1.424-2.646,2.857-5.488,4.228-8.546a38.878,38.878,0,0,0,8.417-5.906c7.863-7.242,11.407-16.681,12.98-24.057H94.835c.109-.828.207-1.672.3-2.6.136-1.3.257-2.711.363-4.137h19.537ZM0,10.587C1.783,30.263,13.46,49.369,32.944,55.826c-1.424-2.646-2.857-5.488-4.228-8.546-13.972-7.291-19.35-20.371-21.4-29.963H20.2c-.278-2.152-.489-4.419-.661-6.73H0ZM91.072,1c0,45.156-22.549,61.3-26.433,79.312-.152.7-.278,1.436-.371,2.174H50.823C48.436,63.567,23.966,47.989,23.966,1Zm-26.8,81.486H50.823c-.968,5.69-3.168,17.347-12.472,17.347v6.62H76.7v-6.62C67.115,99.833,65.189,88.175,64.268,82.486Z" transform="translate(97.59 79.65)" fill="none" stroke="#757575" stroke-width="2"/></g></svg>