<svg xmlns="http://www.w3.org/2000/svg" width="205.868" height="205.868" viewBox="0 0 205.868 205.868"><g transform="translate(0 -475)" opacity="0.2"><circle cx="6.917" cy="6.917" r="6.917" transform="translate(0 475)" fill="#707070"/><circle cx="6.917" cy="6.917" r="6.917" transform="translate(27.339 475)" fill="#707070"/><circle cx="6.917" cy="6.917" r="6.917" transform="translate(54.843 475)" fill="#707070"/><circle cx="6.917" cy="6.917" r="6.917" transform="translate(82.347 475)" fill="#707070"/><circle cx="6.917" cy="6.917" r="6.917" transform="translate(109.687 475)" fill="#707070"/><circle cx="6.917" cy="6.917" r="6.917" transform="translate(137.191 475)" fill="#707070"/><circle cx="6.917" cy="6.917" r="6.917" transform="translate(164.694 475)" fill="#707070"/><circle cx="6.917" cy="6.917" r="6.917" transform="translate(192.034 475)" fill="#707070"/><circle cx="6.917" cy="6.917" r="6.917" transform="translate(0 502.339)" fill="#707070"/><circle cx="6.917" cy="6.917" r="6.917" transform="translate(27.339 502.339)" fill="#707070"/><circle cx="6.917" cy="6.917" r="6.917" transform="translate(54.843 502.339)" fill="#707070"/><circle cx="6.917" cy="6.917" r="6.917" transform="translate(82.347 502.339)" fill="#707070"/><circle cx="6.917" cy="6.917" r="6.917" transform="translate(109.687 502.339)" fill="#707070"/><circle cx="6.917" cy="6.917" r="6.917" transform="translate(137.191 502.339)" fill="#707070"/><circle cx="6.917" cy="6.917" r="6.917" transform="translate(164.694 502.339)" fill="#707070"/><circle cx="6.917" cy="6.917" r="6.917" transform="translate(192.034 502.339)" fill="#707070"/><circle cx="6.917" cy="6.917" r="6.917" transform="translate(0 529.843)" fill="#707070"/><circle cx="6.917" cy="6.917" r="6.917" transform="translate(27.339 529.843)" fill="#707070"/><circle cx="6.917" cy="6.917" r="6.917" transform="translate(54.843 529.843)" fill="#707070"/><circle cx="6.917" cy="6.917" r="6.917" transform="translate(82.347 529.843)" fill="#707070"/><circle cx="6.917" cy="6.917" r="6.917" transform="translate(109.687 529.843)" fill="#707070"/><circle cx="6.917" cy="6.917" r="6.917" transform="translate(137.191 529.843)" fill="#707070"/><circle cx="6.917" cy="6.917" r="6.917" transform="translate(164.694 529.843)" fill="#707070"/><circle cx="6.917" cy="6.917" r="6.917" transform="translate(192.034 529.843)" fill="#707070"/><circle cx="6.917" cy="6.917" r="6.917" transform="translate(0 557.347)" fill="#707070"/><circle cx="6.917" cy="6.917" r="6.917" transform="translate(27.339 557.347)" fill="#707070"/><circle cx="6.917" cy="6.917" r="6.917" transform="translate(54.843 557.347)" fill="#707070"/><circle cx="6.917" cy="6.917" r="6.917" transform="translate(82.347 557.347)" fill="#707070"/><circle cx="6.917" cy="6.917" r="6.917" transform="translate(109.687 557.347)" fill="#707070"/><circle cx="6.917" cy="6.917" r="6.917" transform="translate(137.191 557.347)" fill="#707070"/><circle cx="6.917" cy="6.917" r="6.917" transform="translate(164.694 557.347)" fill="#707070"/><circle cx="6.917" cy="6.917" r="6.917" transform="translate(192.034 557.347)" fill="#707070"/><circle cx="6.917" cy="6.917" r="6.917" transform="translate(0 584.686)" fill="#707070"/><circle cx="6.917" cy="6.917" r="6.917" transform="translate(27.339 584.686)" fill="#707070"/><circle cx="6.917" cy="6.917" r="6.917" transform="translate(54.843 584.686)" fill="#707070"/><circle cx="6.917" cy="6.917" r="6.917" transform="translate(82.347 584.686)" fill="#707070"/><circle cx="6.917" cy="6.917" r="6.917" transform="translate(109.687 584.686)" fill="#707070"/><circle cx="6.917" cy="6.917" r="6.917" transform="translate(137.191 584.686)" fill="#707070"/><circle cx="6.917" cy="6.917" r="6.917" transform="translate(164.694 584.686)" fill="#707070"/><circle cx="6.917" cy="6.917" r="6.917" transform="translate(192.034 584.686)" fill="#707070"/><circle cx="6.917" cy="6.917" r="6.917" transform="translate(0 612.19)" fill="#707070"/><circle cx="6.917" cy="6.917" r="6.917" transform="translate(27.339 612.19)" fill="#707070"/><circle cx="6.917" cy="6.917" r="6.917" transform="translate(54.843 612.19)" fill="#707070"/><circle cx="6.917" cy="6.917" r="6.917" transform="translate(82.347 612.19)" fill="#707070"/><circle cx="6.917" cy="6.917" r="6.917" transform="translate(109.687 612.19)" fill="#707070"/><circle cx="6.917" cy="6.917" r="6.917" transform="translate(137.191 612.19)" fill="#707070"/><circle cx="6.917" cy="6.917" r="6.917" transform="translate(164.694 612.19)" fill="#707070"/><circle cx="6.917" cy="6.917" r="6.917" transform="translate(192.034 612.19)" fill="#707070"/><circle cx="6.917" cy="6.917" r="6.917" transform="translate(0 639.694)" fill="#707070"/><circle cx="6.917" cy="6.917" r="6.917" transform="translate(27.339 639.694)" fill="#707070"/><circle cx="6.917" cy="6.917" r="6.917" transform="translate(54.843 639.694)" fill="#707070"/><circle cx="6.917" cy="6.917" r="6.917" transform="translate(82.347 639.694)" fill="#707070"/><circle cx="6.917" cy="6.917" r="6.917" transform="translate(109.687 639.694)" fill="#707070"/><circle cx="6.917" cy="6.917" r="6.917" transform="translate(137.191 639.694)" fill="#707070"/><circle cx="6.917" cy="6.917" r="6.917" transform="translate(164.694 639.694)" fill="#707070"/><circle cx="6.917" cy="6.917" r="6.917" transform="translate(192.034 639.694)" fill="#707070"/><circle cx="6.917" cy="6.917" r="6.917" transform="translate(0 667.034)" fill="#707070"/><circle cx="6.917" cy="6.917" r="6.917" transform="translate(27.339 667.034)" fill="#707070"/><circle cx="6.917" cy="6.917" r="6.917" transform="translate(54.843 667.034)" fill="#707070"/><circle cx="6.917" cy="6.917" r="6.917" transform="translate(82.347 667.034)" fill="#707070"/><circle cx="6.917" cy="6.917" r="6.917" transform="translate(109.687 667.034)" fill="#707070"/><circle cx="6.917" cy="6.917" r="6.917" transform="translate(137.191 667.034)" fill="#707070"/><circle cx="6.917" cy="6.917" r="6.917" transform="translate(164.694 667.034)" fill="#707070"/><circle cx="6.917" cy="6.917" r="6.917" transform="translate(192.034 667.034)" fill="#707070"/></g></svg>