<svg xmlns="http://www.w3.org/2000/svg" width="11.432" height="13.638" viewBox="0 0 11.432 13.638"><g transform="translate(0 0.5)"><g transform="translate(-80.04 -32)"><path d="M89.968,229.962a6.776,6.776,0,0,0-1.466-4.273,4.467,4.467,0,0,0-7,0,6.774,6.774,0,0,0-1.466,4.268A12.1,12.1,0,0,0,85,231.222,11.045,11.045,0,0,0,89.968,229.962Z" transform="translate(0 -186.584)" fill="#00ffa8"/><circle cx="2.482" cy="2.482" r="2.482" transform="translate(82.521 32)" fill="#00ffa8"/></g><g transform="translate(-79.04 -32)"><path d="M89.968,229.962a6.776,6.776,0,0,0-1.466-4.273,4.467,4.467,0,0,0-7,0,6.774,6.774,0,0,0-1.466,4.268A12.1,12.1,0,0,0,85,231.222,11.045,11.045,0,0,0,89.968,229.962Z" transform="translate(0 -186.584)" fill="none" stroke="#707070" stroke-width="1"/><circle cx="2.482" cy="2.482" r="2.482" transform="translate(82.521 32)" fill="none" stroke="#707070" stroke-width="1"/></g></g></svg>