<svg xmlns="http://www.w3.org/2000/svg" xmlns:xlink="http://www.w3.org/1999/xlink" width="246.972" height="214.839" viewBox="0 0 246.972 214.839"><defs><filter id="a" x="62.965" y="69.88" width="127.027" height="106.932" filterUnits="userSpaceOnUse"><feOffset dy="3" input="SourceAlpha"/><feGaussianBlur stdDeviation="3" result="b"/><feFlood flood-opacity="0.161"/><feComposite operator="in" in2="b"/><feComposite in="SourceGraphic"/></filter></defs><path d="M205.578,390.66c-37.6-.031-63.414-55.736-64.332-58.489-2.967-8.841-12.267-36.342,1.652-63.414,17.192-33.374,60.263-47.66,88.284-38.085,19.058,6.485,16.4,18.966,40.838,30.743,29.856,14.347,46.926,2.08,61.854,15.571,15.632,14.1,15.54,44.417,7.4,64.516-11.1,27.409-23.31,43.806-50.505,49.19C267.952,390.721,237.02,397.156,205.578,390.66Z" transform="matrix(0.966, -0.259, 0.259, 0.966, -189.779, -130.256)" fill="#00ffa8" opacity="0.1"/><g transform="translate(67.04 25.954)"><path d="M87.936,52.341A27.549,27.549,0,0,0,53.45,69.591a27.473,27.473,0,0,0-52.1,17.461c4.5,13.812,46.272,50.806,51.616,50.806s48.044-36.948,52.548-50.806A27.5,27.5,0,0,0,87.936,52.341Z" transform="translate(0 0)" fill="#00ffa8"/></g><g transform="translate(67.04 25.954)" style="isolation:isolate"><g transform="matrix(1, 0, 0, 1, -67.04, -25.95)" filter="url(#a)"><path d="M87.936,52.341A27.549,27.549,0,0,0,53.45,69.591a27.473,27.473,0,0,0-52.1,17.461c4.5,13.812,46.272,50.806,51.616,50.806s48.044-36.948,52.548-50.806A27.5,27.5,0,0,0,87.936,52.341Z" transform="translate(73.04 25.95)" fill="none" stroke="#707070" stroke-width="2"/></g></g></svg>