<svg xmlns="http://www.w3.org/2000/svg" xmlns:xlink="http://www.w3.org/1999/xlink" width="267.029" height="203.828" viewBox="0 0 267.029 203.828"><defs><filter id="a" x="62.514" y="47.46" width="125.003" height="119.769" filterUnits="userSpaceOnUse"><feOffset dy="3" input="SourceAlpha"/><feGaussianBlur stdDeviation="3" result="b"/><feFlood flood-opacity="0.161"/><feComposite operator="in" in2="b"/><feComposite in="SourceGraphic"/></filter><filter id="c" x="66.694" y="45.34" width="129.364" height="123.917" filterUnits="userSpaceOnUse"><feOffset dy="3" input="SourceAlpha"/><feGaussianBlur stdDeviation="3" result="d"/><feFlood flood-opacity="0.161"/><feComposite operator="in" in2="d"/><feComposite in="SourceGraphic"/></filter></defs><path d="M213.028,160.582c-11.957-.867-23.346-8.74-34.213-17.336s-21.646-18.161-33.317-22.725c-7.507-2.936-16.092-3.35-22.139,4.858-5.822,7.914-7.7,21.538-8.713,34.193-.761,9.52-1.208,19.537.876,28.45,1.449,6.188,4.017,11.389,5.794,17.317,6.184,20.622,1.812,46.053-4.887,66.189-3.141,9.448-6.79,18.467-9.216,28.514s-3.547,21.576-1.424,31.834a45.133,45.133,0,0,0,12.545,23.174c11.028,10.907,24.018,14.031,36.694,15.8,28.051,3.916,56.251,2.22,84.376.524,10.409-.629,20.863-1.266,31.1-4.549,5.687-1.824,11.556-4.718,15.686-11.7,5.24-8.868,6.538-23.886,3.026-35-5.89-18.651-22.171-23.283-26.293-43.3a54.5,54.5,0,0,1-.221-18.446,90.841,90.841,0,0,1,3.576-15.062c7.065-21.919,18.906-41.15,19.529-66.208.429-17.208-5.264-34.442-14.066-42.586-9.225-8.536-22.019-7.462-28.822,6.667C235.9,155.713,223.587,161.309,213.028,160.582Z" transform="matrix(0.07, 0.998, -0.998, 0.07, 365.026, -112.684)" fill="#00ffa8" opacity="0.1"/><g transform="matrix(1, 0, 0, 1, 0, 0)" filter="url(#a)"><path d="M53.5.587,69.855,34.329,107,39.46,79.967,65.444l6.6,36.912L53.5,84.669,20.433,102.356l6.6-36.912L0,39.46l37.148-5.132Z" transform="translate(71.51 52.87)" fill="#00ffa8"/></g><g transform="matrix(1, 0, 0, 1, 0, 0)" filter="url(#c)"><path d="M53.5.587,69.855,34.329,107,39.46,79.967,65.444l6.6,36.912L53.5,84.669,20.433,102.356l6.6-36.912L0,39.46l37.148-5.132Z" transform="translate(77.87 53.05)" fill="none" stroke="#707070" stroke-width="2"/></g></svg>